<mxfile host="65bd71144e">
    <diagram name="Page-1" id="a7904f86-f2b4-8e86-fa97-74104820619b">
        <mxGraphModel dx="1793" dy="405" grid="1" gridSize="10" guides="1" tooltips="1" connect="1" arrows="1" fold="1" page="1" pageScale="1" pageWidth="1100" pageHeight="850" background="none" math="0" shadow="0">
            <root>
                <mxCell id="0"/>
                <mxCell id="1" parent="0"/>
                <mxCell id="6" style="edgeStyle=orthogonalEdgeStyle;html=1;elbow=vertical;exitX=0;exitY=0.081;exitDx=0;exitDy=0;exitPerimeter=0;entryX=-0.01;entryY=0.609;entryDx=0;entryDy=0;entryPerimeter=0;" parent="1" source="24794b860abc3c2d-1" target="24794b860abc3c2d-1" edge="1">
                    <mxGeometry relative="1" as="geometry">
                        <mxPoint x="-330" y="296" as="targetPoint"/>
                        <mxPoint x="-330" y="67" as="sourcePoint"/>
                        <Array as="points">
                            <mxPoint x="-310" y="67"/>
                            <mxPoint x="-440" y="67"/>
                            <mxPoint x="-440" y="297"/>
                        </Array>
                    </mxGeometry>
                </mxCell>
                <mxCell id="9" style="edgeStyle=elbowEdgeStyle;html=1;entryX=0;entryY=0.75;entryDx=0;entryDy=0;exitX=0.003;exitY=0.149;exitDx=0;exitDy=0;exitPerimeter=0;" parent="1" source="24794b860abc3c2d-1" target="24794b860abc3c2d-1" edge="1">
                    <mxGeometry relative="1" as="geometry">
                        <mxPoint x="-313" y="360" as="targetPoint"/>
                        <mxPoint x="-330" y="99" as="sourcePoint"/>
                        <Array as="points">
                            <mxPoint x="-400" y="230"/>
                            <mxPoint x="-450" y="90"/>
                        </Array>
                    </mxGeometry>
                </mxCell>
                <mxCell id="10" style="edgeStyle=elbowEdgeStyle;html=1;exitX=-0.003;exitY=0.219;exitDx=0;exitDy=0;exitPerimeter=0;entryX=-0.003;entryY=0.416;entryDx=0;entryDy=0;entryPerimeter=0;" parent="1" source="24794b860abc3c2d-1" target="24794b860abc3c2d-1" edge="1">
                    <mxGeometry relative="1" as="geometry">
                        <mxPoint x="-314" y="220" as="targetPoint"/>
                        <Array as="points">
                            <mxPoint x="-360" y="170"/>
                            <mxPoint x="-360" y="280"/>
                        </Array>
                    </mxGeometry>
                </mxCell>
                <mxCell id="13" style="edgeStyle=orthogonalEdgeStyle;html=1;exitX=1.003;exitY=0.419;exitDx=0;exitDy=0;exitPerimeter=0;entryX=0.997;entryY=0.481;entryDx=0;entryDy=0;entryPerimeter=0;" parent="1" source="24794b860abc3c2d-1" target="24794b860abc3c2d-1" edge="1">
                    <mxGeometry relative="1" as="geometry">
                        <mxPoint x="10" y="290" as="targetPoint"/>
                        <Array as="points">
                            <mxPoint x="120" y="215"/>
                            <mxPoint x="120" y="242"/>
                        </Array>
                    </mxGeometry>
                </mxCell>
                <mxCell id="15" style="edgeStyle=orthogonalEdgeStyle;html=1;exitX=1;exitY=0.419;exitDx=0;exitDy=0;entryX=1.003;entryY=0.551;entryDx=0;entryDy=0;entryPerimeter=0;exitPerimeter=0;" parent="1" source="24794b860abc3c2d-1" target="24794b860abc3c2d-1" edge="1">
                    <mxGeometry relative="1" as="geometry">
                        <mxPoint x="150" y="280" as="targetPoint"/>
                        <Array as="points">
                            <mxPoint x="120" y="215"/>
                            <mxPoint x="120" y="272"/>
                        </Array>
                    </mxGeometry>
                </mxCell>
                <mxCell id="16" style="edgeStyle=orthogonalEdgeStyle;html=1;exitX=-0.003;exitY=0.074;exitDx=0;exitDy=0;entryX=0;entryY=0.686;entryDx=0;entryDy=0;entryPerimeter=0;exitPerimeter=0;" parent="1" source="24794b860abc3c2d-1" target="24794b860abc3c2d-1" edge="1">
                    <mxGeometry relative="1" as="geometry">
                        <mxPoint x="-540" y="330" as="targetPoint"/>
                        <Array as="points">
                            <mxPoint x="-440" y="67"/>
                            <mxPoint x="-440" y="330"/>
                        </Array>
                    </mxGeometry>
                </mxCell>
                <mxCell id="22" style="edgeStyle=orthogonalEdgeStyle;html=1;exitX=1;exitY=0.5;exitDx=0;exitDy=0;entryX=1.011;entryY=0.617;entryDx=0;entryDy=0;entryPerimeter=0;" parent="1" source="24794b860abc3c2d-1" target="24794b860abc3c2d-1" edge="1">
                    <mxGeometry relative="1" as="geometry">
                        <mxPoint x="80" y="300" as="targetPoint"/>
                        <Array as="points">
                            <mxPoint x="80" y="250"/>
                            <mxPoint x="80" y="300"/>
                        </Array>
                    </mxGeometry>
                </mxCell>
                <mxCell id="23" style="edgeStyle=orthogonalEdgeStyle;html=1;exitX=1;exitY=0.5;exitDx=0;exitDy=0;entryX=1.013;entryY=0.664;entryDx=0;entryDy=0;entryPerimeter=0;" parent="1" source="24794b860abc3c2d-1" target="24794b860abc3c2d-1" edge="1">
                    <mxGeometry relative="1" as="geometry">
                        <mxPoint x="20" y="320" as="targetPoint"/>
                        <Array as="points">
                            <mxPoint x="80" y="250"/>
                            <mxPoint x="80" y="321"/>
                        </Array>
                    </mxGeometry>
                </mxCell>
                <mxCell id="24" style="edgeStyle=orthogonalEdgeStyle;html=1;exitX=1;exitY=0.5;exitDx=0;exitDy=0;entryX=1;entryY=0.756;entryDx=0;entryDy=0;entryPerimeter=0;" parent="1" source="24794b860abc3c2d-1" target="24794b860abc3c2d-1" edge="1">
                    <mxGeometry relative="1" as="geometry">
                        <mxPoint x="10" y="360" as="targetPoint"/>
                        <Array as="points">
                            <mxPoint x="80" y="250"/>
                            <mxPoint x="80" y="360"/>
                        </Array>
                    </mxGeometry>
                </mxCell>
                <mxCell id="25" style="edgeStyle=orthogonalEdgeStyle;html=1;exitX=1.009;exitY=0.569;exitDx=0;exitDy=0;exitPerimeter=0;entryX=1.002;entryY=0.639;entryDx=0;entryDy=0;entryPerimeter=0;" parent="1" source="24794b860abc3c2d-1" target="24794b860abc3c2d-1" edge="1">
                    <mxGeometry relative="1" as="geometry">
                        <mxPoint x="10" y="310" as="targetPoint"/>
                        <Array as="points">
                            <mxPoint x="50" y="280"/>
                            <mxPoint x="50" y="310"/>
                        </Array>
                    </mxGeometry>
                </mxCell>
                <mxCell id="26" style="edgeStyle=orthogonalEdgeStyle;html=1;exitX=1.009;exitY=0.567;exitDx=0;exitDy=0;exitPerimeter=0;entryX=1.006;entryY=0.688;entryDx=0;entryDy=0;entryPerimeter=0;" parent="1" source="24794b860abc3c2d-1" target="24794b860abc3c2d-1" edge="1">
                    <mxGeometry relative="1" as="geometry">
                        <mxPoint x="20" y="330" as="targetPoint"/>
                        <Array as="points">
                            <mxPoint x="50" y="279"/>
                            <mxPoint x="50" y="330"/>
                            <mxPoint x="20" y="330"/>
                        </Array>
                    </mxGeometry>
                </mxCell>
                <mxCell id="27" style="edgeStyle=orthogonalEdgeStyle;html=1;exitX=1;exitY=0.567;exitDx=0;exitDy=0;entryX=1.013;entryY=0.733;entryDx=0;entryDy=0;entryPerimeter=0;exitPerimeter=0;" parent="1" source="24794b860abc3c2d-1" target="24794b860abc3c2d-1" edge="1">
                    <mxGeometry relative="1" as="geometry">
                        <mxPoint x="10" y="350" as="targetPoint"/>
                        <Array as="points">
                            <mxPoint y="280"/>
                            <mxPoint x="50" y="280"/>
                            <mxPoint x="50" y="350"/>
                        </Array>
                    </mxGeometry>
                </mxCell>
                <mxCell id="28" style="edgeStyle=orthogonalEdgeStyle;html=1;exitX=0;exitY=0.779;exitDx=0;exitDy=0;exitPerimeter=0;entryX=-0.011;entryY=0.848;entryDx=0;entryDy=0;entryPerimeter=0;" parent="1" source="24794b860abc3c2d-1" target="24794b860abc3c2d-1" edge="1">
                    <mxGeometry relative="1" as="geometry">
                        <mxPoint x="-420" y="400" as="targetPoint"/>
                        <mxPoint x="-340" y="360" as="sourcePoint"/>
                        <Array as="points">
                            <mxPoint x="-370" y="370"/>
                            <mxPoint x="-370" y="400"/>
                        </Array>
                    </mxGeometry>
                </mxCell>
                <mxCell id="30" style="edgeStyle=elbowEdgeStyle;html=1;exitX=1.003;exitY=0.912;exitDx=0;exitDy=0;exitPerimeter=0;entryX=-0.006;entryY=0.386;entryDx=0;entryDy=0;entryPerimeter=0;" parent="1" source="24794b860abc3c2d-1" target="29" edge="1">
                    <mxGeometry relative="1" as="geometry">
                        <mxPoint x="280" y="200" as="targetPoint"/>
                        <Array as="points">
                            <mxPoint x="180" y="350"/>
                            <mxPoint x="190" y="290"/>
                        </Array>
                    </mxGeometry>
                </mxCell>
                <mxCell id="32" style="edgeStyle=orthogonalEdgeStyle;html=1;exitX=1.003;exitY=0.972;exitDx=0;exitDy=0;exitPerimeter=0;entryX=-0.003;entryY=0.479;entryDx=0;entryDy=0;entryPerimeter=0;" parent="1" source="24794b860abc3c2d-1" target="29" edge="1">
                    <mxGeometry relative="1" as="geometry">
                        <mxPoint x="290" y="240" as="targetPoint"/>
                        <Array as="points">
                            <mxPoint x="200" y="453"/>
                            <mxPoint x="200" y="240"/>
                        </Array>
                    </mxGeometry>
                </mxCell>
                <mxCell id="24794b860abc3c2d-1" value="&lt;p style=&quot;margin: 0px ; margin-top: 4px ; text-align: center ; text-decoration: underline&quot;&gt;&lt;b&gt;Module: getData.R&lt;/b&gt;&lt;/p&gt;&lt;hr&gt;&lt;p style=&quot;margin: 0px 0px 0px 8px;&quot;&gt;function: getStartEndDate&lt;/p&gt;&lt;hr&gt;&amp;nbsp; function:&amp;nbsp; getStartDate&lt;br&gt;&lt;hr&gt;&amp;nbsp; function: connectToDatabase&lt;br&gt;&lt;hr&gt;&amp;nbsp; function: disconnectFromDatabase&lt;br&gt;&lt;hr&gt;&amp;nbsp; function: printTables (&lt;b&gt;NOT USED&lt;/b&gt;)&lt;br&gt;&lt;hr&gt;&amp;nbsp; function: getData&lt;br&gt;&lt;hr&gt;&amp;nbsp; function: getTemperatureHumidityData&lt;br&gt;&lt;hr&gt;&amp;nbsp; function: getEnergyData&lt;br&gt;&lt;hr&gt;&amp;nbsp; function: createHistoryData (&lt;b&gt;NOT USED&lt;/b&gt;)&lt;br&gt;&lt;hr&gt;&amp;nbsp; function: createLatestData (&lt;b&gt;NOT USED&lt;/b&gt;)&lt;br&gt;&lt;hr&gt;&amp;nbsp; function: createGivenDateData&lt;br&gt;&lt;br&gt;&lt;hr&gt;&amp;nbsp; Outputs:&lt;br&gt;&lt;ul&gt;&lt;li&gt;variable: env_raw -&amp;gt; raw T/RH data from DB&lt;/li&gt;&lt;li&gt;variable: energy_raw -&amp;gt; raw energy data from DB&lt;/li&gt;&lt;/ul&gt;" style="verticalAlign=top;align=left;overflow=fill;fontSize=12;fontFamily=Helvetica;html=1;rounded=0;shadow=0;comic=0;labelBackgroundColor=none;strokeWidth=1;fillColor=#333333;" parent="1" vertex="1">
                    <mxGeometry x="-310" y="35" width="310" height="430" as="geometry"/>
                </mxCell>
                <mxCell id="12" style="edgeStyle=elbowEdgeStyle;html=1;exitX=0;exitY=0.286;exitDx=0;exitDy=0;exitPerimeter=0;entryX=0;entryY=0.416;entryDx=0;entryDy=0;entryPerimeter=0;" parent="1" source="24794b860abc3c2d-1" target="24794b860abc3c2d-1" edge="1">
                    <mxGeometry relative="1" as="geometry">
                        <mxPoint x="-309.99999999999983" y="219.70999999999998" as="targetPoint"/>
                        <mxPoint x="-309.99999999999983" y="134.99999999999994" as="sourcePoint"/>
                        <Array as="points">
                            <mxPoint x="-360" y="170"/>
                            <mxPoint x="-359.07" y="175.82999999999998"/>
                            <mxPoint x="-359.07" y="285.83000000000004"/>
                        </Array>
                    </mxGeometry>
                </mxCell>
                <mxCell id="35" style="edgeStyle=orthogonalEdgeStyle;html=1;exitX=-0.009;exitY=0.084;exitDx=0;exitDy=0;exitPerimeter=0;entryX=-0.014;entryY=0.291;entryDx=0;entryDy=0;entryPerimeter=0;" parent="1" source="29" target="29" edge="1">
                    <mxGeometry relative="1" as="geometry">
                        <mxPoint x="290" y="160" as="targetPoint"/>
                        <Array as="points">
                            <mxPoint x="240" y="71"/>
                            <mxPoint x="240" y="160"/>
                        </Array>
                    </mxGeometry>
                </mxCell>
                <mxCell id="36" style="edgeStyle=orthogonalEdgeStyle;html=1;exitX=1.006;exitY=0.181;exitDx=0;exitDy=0;exitPerimeter=0;entryX=1.011;entryY=0.381;entryDx=0;entryDy=0;entryPerimeter=0;" parent="1" source="29" target="29" edge="1">
                    <mxGeometry relative="1" as="geometry">
                        <mxPoint x="730" y="200" as="targetPoint"/>
                        <Array as="points">
                            <mxPoint x="740" y="113"/>
                            <mxPoint x="740" y="199"/>
                        </Array>
                    </mxGeometry>
                </mxCell>
                <mxCell id="37" style="edgeStyle=orthogonalEdgeStyle;html=1;exitX=1;exitY=0.181;exitDx=0;exitDy=0;exitPerimeter=0;entryX=0.997;entryY=0.479;entryDx=0;entryDy=0;entryPerimeter=0;" parent="1" source="29" target="29" edge="1">
                    <mxGeometry relative="1" as="geometry">
                        <mxPoint x="660" y="240" as="targetPoint"/>
                        <Array as="points">
                            <mxPoint x="740" y="113"/>
                            <mxPoint x="740" y="240"/>
                        </Array>
                    </mxGeometry>
                </mxCell>
                <mxCell id="38" style="edgeStyle=orthogonalEdgeStyle;html=1;exitX=1.007;exitY=0.287;exitDx=0;exitDy=0;exitPerimeter=0;entryX=1.003;entryY=0.429;entryDx=0;entryDy=0;entryPerimeter=0;" parent="1" source="29" target="29" edge="1">
                    <mxGeometry relative="1" as="geometry">
                        <mxPoint x="660" y="220" as="targetPoint"/>
                        <Array as="points">
                            <mxPoint x="710" y="158"/>
                            <mxPoint x="710" y="220"/>
                        </Array>
                    </mxGeometry>
                </mxCell>
                <mxCell id="39" style="edgeStyle=orthogonalEdgeStyle;html=1;exitX=0.001;exitY=0.426;exitDx=0;exitDy=0;exitPerimeter=0;entryX=-0.007;entryY=0.684;entryDx=0;entryDy=0;entryPerimeter=0;" parent="1" source="29" target="29" edge="1">
                    <mxGeometry relative="1" as="geometry">
                        <mxPoint x="220" y="330" as="targetPoint"/>
                        <Array as="points">
                            <mxPoint x="250" y="218"/>
                            <mxPoint x="250" y="329"/>
                        </Array>
                    </mxGeometry>
                </mxCell>
                <mxCell id="40" style="edgeStyle=orthogonalEdgeStyle;html=1;exitX=-0.007;exitY=0.529;exitDx=0;exitDy=0;exitPerimeter=0;entryX=-0.014;entryY=0.802;entryDx=0;entryDy=0;entryPerimeter=0;" parent="1" source="29" target="29" edge="1">
                    <mxGeometry relative="1" as="geometry">
                        <mxPoint x="280" y="380" as="targetPoint"/>
                        <Array as="points">
                            <mxPoint x="270" y="263"/>
                            <mxPoint x="270" y="380"/>
                        </Array>
                    </mxGeometry>
                </mxCell>
                <mxCell id="77" style="edgeStyle=orthogonalEdgeStyle;html=1;exitX=1;exitY=0.75;exitDx=0;exitDy=0;entryX=1;entryY=0.959;entryDx=0;entryDy=0;entryPerimeter=0;" edge="1" parent="1" source="29" target="47">
                    <mxGeometry relative="1" as="geometry">
                        <mxPoint x="660" y="1280" as="targetPoint"/>
                        <Array as="points">
                            <mxPoint x="780" y="358"/>
                            <mxPoint x="780" y="1280"/>
                        </Array>
                    </mxGeometry>
                </mxCell>
                <mxCell id="29" value="&lt;p style=&quot;margin: 0px ; margin-top: 4px ; text-align: center ; text-decoration: underline&quot;&gt;&lt;b&gt;Module: cleanData.R&lt;/b&gt;&lt;/p&gt;&lt;hr&gt;&lt;p style=&quot;margin: 0px 0px 0px 8px;&quot;&gt;function: delete.na&lt;/p&gt;&lt;p style=&quot;margin: 0px 0px 0px 8px;&quot;&gt;&lt;br&gt;&lt;/p&gt;&lt;hr&gt;&amp;nbsp; function: decimal_hour&lt;br&gt;&lt;br&gt;&lt;hr&gt;&amp;nbsp; function: hourly_av_sensor&lt;br&gt;&lt;br&gt;&lt;hr&gt;&amp;nbsp; function: cleanEnvData&lt;br&gt;&lt;br&gt;&lt;hr&gt;&amp;nbsp; function: cleanEnergyData&lt;br&gt;&lt;br&gt;&lt;hr&gt;&amp;nbsp;&amp;nbsp;Outputs:&lt;br&gt;&lt;ul&gt;&lt;li&gt;variable: t_ee -&amp;gt; dataframe containing processed T/RH&lt;/li&gt;&lt;/ul&gt;&lt;span style=&quot;white-space: pre;&quot;&gt;&#9;&lt;/span&gt;and energy data defined on the same time vector" style="verticalAlign=top;align=left;overflow=fill;fontSize=12;fontFamily=Helvetica;html=1;rounded=0;shadow=0;comic=0;labelBackgroundColor=none;strokeWidth=1;fillColor=#333333;" parent="1" vertex="1">
                    <mxGeometry x="305" y="35" width="350" height="430" as="geometry"/>
                </mxCell>
                <mxCell id="44" style="edgeStyle=orthogonalEdgeStyle;html=1;exitX=-0.011;exitY=0.063;exitDx=0;exitDy=0;exitPerimeter=0;entryX=0;entryY=0.154;entryDx=0;entryDy=0;entryPerimeter=0;" parent="1" source="42" target="42" edge="1">
                    <mxGeometry relative="1" as="geometry">
                        <mxPoint x="-354" y="650" as="targetPoint"/>
                        <Array as="points">
                            <mxPoint x="-440" y="603"/>
                            <mxPoint x="-440" y="650"/>
                        </Array>
                    </mxGeometry>
                </mxCell>
                <mxCell id="45" style="edgeStyle=orthogonalEdgeStyle;html=1;exitX=-0.003;exitY=0.065;exitDx=0;exitDy=0;exitPerimeter=0;entryX=-0.011;entryY=0.404;entryDx=0;entryDy=0;entryPerimeter=0;" parent="1" source="42" target="42" edge="1">
                    <mxGeometry relative="1" as="geometry">
                        <mxPoint x="-360" y="780" as="targetPoint"/>
                        <Array as="points">
                            <mxPoint x="-440" y="604"/>
                            <mxPoint x="-440" y="780"/>
                        </Array>
                    </mxGeometry>
                </mxCell>
                <mxCell id="46" style="edgeStyle=orthogonalEdgeStyle;html=1;entryX=-0.011;entryY=0.308;entryDx=0;entryDy=0;entryPerimeter=0;" parent="1" target="42" edge="1">
                    <mxGeometry relative="1" as="geometry">
                        <mxPoint x="-360" y="730" as="targetPoint"/>
                        <mxPoint x="-350" y="690" as="sourcePoint"/>
                        <Array as="points">
                            <mxPoint x="-380" y="690"/>
                            <mxPoint x="-380" y="730"/>
                        </Array>
                    </mxGeometry>
                </mxCell>
                <mxCell id="49" style="edgeStyle=orthogonalEdgeStyle;html=1;exitX=1.006;exitY=0.313;exitDx=0;exitDy=0;exitPerimeter=0;entryX=-0.003;entryY=0.22;entryDx=0;entryDy=0;entryPerimeter=0;" parent="1" source="42" target="47" edge="1">
                    <mxGeometry relative="1" as="geometry">
                        <mxPoint x="240" y="700" as="targetPoint"/>
                    </mxGeometry>
                </mxCell>
                <mxCell id="51" style="edgeStyle=orthogonalEdgeStyle;html=1;exitX=0.997;exitY=0.644;exitDx=0;exitDy=0;exitPerimeter=0;" parent="1" source="42" edge="1">
                    <mxGeometry relative="1" as="geometry">
                        <mxPoint x="300" y="1080" as="targetPoint"/>
                        <Array as="points">
                            <mxPoint x="150" y="905"/>
                            <mxPoint x="150" y="1080"/>
                        </Array>
                    </mxGeometry>
                </mxCell>
                <mxCell id="52" style="edgeStyle=orthogonalEdgeStyle;html=1;exitX=1.006;exitY=0.733;exitDx=0;exitDy=0;entryX=-0.003;entryY=0.574;entryDx=0;entryDy=0;entryPerimeter=0;exitPerimeter=0;" parent="1" source="42" target="47" edge="1">
                    <mxGeometry relative="1" as="geometry">
                        <Array as="points">
                            <mxPoint y="951"/>
                            <mxPoint y="950"/>
                            <mxPoint x="120" y="950"/>
                            <mxPoint x="120" y="995"/>
                        </Array>
                    </mxGeometry>
                </mxCell>
                <mxCell id="53" style="edgeStyle=orthogonalEdgeStyle;html=1;exitX=-0.009;exitY=0.81;exitDx=0;exitDy=0;exitPerimeter=0;entryX=0;entryY=0.481;entryDx=0;entryDy=0;entryPerimeter=0;" parent="1" source="42" target="42" edge="1">
                    <mxGeometry relative="1" as="geometry">
                        <mxPoint x="-490" y="820" as="targetPoint"/>
                        <Array as="points">
                            <mxPoint x="-470" y="991"/>
                            <mxPoint x="-470" y="820"/>
                        </Array>
                    </mxGeometry>
                </mxCell>
                <mxCell id="54" style="edgeStyle=orthogonalEdgeStyle;html=1;exitX=1.003;exitY=0.808;exitDx=0;exitDy=0;entryX=-0.006;entryY=0.615;entryDx=0;entryDy=0;entryPerimeter=0;exitPerimeter=0;" parent="1" source="42" target="47" edge="1">
                    <mxGeometry relative="1" as="geometry">
                        <Array as="points">
                            <mxPoint x="110" y="990"/>
                            <mxPoint x="110" y="1025"/>
                        </Array>
                    </mxGeometry>
                </mxCell>
                <mxCell id="55" style="edgeStyle=orthogonalEdgeStyle;html=1;exitX=0;exitY=0.9;exitDx=0;exitDy=0;exitPerimeter=0;entryX=0;entryY=0.5;entryDx=0;entryDy=0;" parent="1" source="42" target="42" edge="1">
                    <mxGeometry relative="1" as="geometry">
                        <mxPoint x="-480" y="830" as="targetPoint"/>
                        <Array as="points">
                            <mxPoint x="-440" y="1038"/>
                            <mxPoint x="-440" y="830"/>
                        </Array>
                    </mxGeometry>
                </mxCell>
                <mxCell id="56" style="edgeStyle=orthogonalEdgeStyle;html=1;exitX=-0.014;exitY=0.944;exitDx=0;exitDy=0;exitPerimeter=0;entryX=-0.006;entryY=0.827;entryDx=0;entryDy=0;entryPerimeter=0;" parent="1" source="42" target="42" edge="1">
                    <mxGeometry relative="1" as="geometry">
                        <mxPoint x="-500" y="1000" as="targetPoint"/>
                        <Array as="points">
                            <mxPoint x="-400" y="1061"/>
                            <mxPoint x="-400" y="1000"/>
                        </Array>
                    </mxGeometry>
                </mxCell>
                <mxCell id="57" style="edgeStyle=orthogonalEdgeStyle;html=1;exitX=0.997;exitY=0.929;exitDx=0;exitDy=0;exitPerimeter=0;entryX=-0.003;entryY=0.654;entryDx=0;entryDy=0;entryPerimeter=0;" parent="1" source="42" target="47" edge="1">
                    <mxGeometry relative="1" as="geometry">
                        <mxPoint x="90" y="960" as="targetPoint"/>
                    </mxGeometry>
                </mxCell>
                <mxCell id="42" value="&lt;p style=&quot;margin: 0px ; margin-top: 4px ; text-align: center ; text-decoration: underline&quot;&gt;&lt;b&gt;Module: may_live_functions.R&lt;/b&gt;&lt;/p&gt;&lt;hr&gt;&lt;p style=&quot;margin: 0px 0px 0px 8px;&quot;&gt;function: constructLights&lt;/p&gt;&lt;p style=&quot;margin: 0px 0px 0px 8px;&quot;&gt;-&amp;gt; identifies likely time lights came on in the farm&lt;/p&gt;&lt;hr&gt;&amp;nbsp; function: fill_data_original (&lt;b&gt;NOT USED&lt;/b&gt;)&lt;br&gt;&amp;nbsp; -&amp;gt; fills in missing data using typical values for time of month/year&lt;br&gt;&lt;hr&gt;&amp;nbsp; function: make_pseudo_season&lt;br&gt;&lt;br&gt;&lt;hr&gt;&amp;nbsp; function: fill_data&lt;br&gt;&amp;nbsp; -&amp;gt; fills in missing data using typical values for time of month/year&lt;br&gt;&lt;hr&gt;&amp;nbsp; function: fill_data_mean (&lt;b&gt;NOT USED&lt;/b&gt;)&lt;br&gt;&lt;br&gt;&lt;hr&gt;&amp;nbsp; function: runbsts_live (&lt;b&gt;NOT USED&lt;/b&gt;)&lt;br&gt;&lt;br&gt;&lt;hr&gt;&amp;nbsp; function: print_warning_message (&lt;b&gt;NOT USED&lt;/b&gt;)&lt;br&gt;&lt;br&gt;&lt;hr&gt;&amp;nbsp; function: sim_stats_bsts&lt;br&gt;&lt;br&gt;&lt;hr&gt;&amp;nbsp; function: sim_stats_arima&lt;br&gt;&lt;br&gt;&lt;hr&gt;&amp;nbsp; function: constructCov&lt;br&gt;&lt;br&gt;&lt;hr&gt;&amp;nbsp; function: constructCovTyp" style="verticalAlign=top;align=left;overflow=fill;fontSize=12;fontFamily=Helvetica;html=1;rounded=0;shadow=0;comic=0;labelBackgroundColor=none;strokeWidth=1;fillColor=#333333;" parent="1" vertex="1">
                    <mxGeometry x="-350" y="570" width="350" height="520" as="geometry"/>
                </mxCell>
                <mxCell id="72" style="edgeStyle=orthogonalEdgeStyle;html=1;exitX=-0.006;exitY=0.05;exitDx=0;exitDy=0;exitPerimeter=0;entryX=-0.003;entryY=0.393;entryDx=0;entryDy=0;entryPerimeter=0;" parent="1" source="47" target="47" edge="1">
                    <mxGeometry relative="1" as="geometry">
                        <mxPoint x="220" y="860" as="targetPoint"/>
                        <Array as="points">
                            <mxPoint x="210" y="607"/>
                            <mxPoint x="210" y="860"/>
                            <mxPoint x="220" y="860"/>
                        </Array>
                    </mxGeometry>
                </mxCell>
                <mxCell id="73" style="edgeStyle=orthogonalEdgeStyle;html=1;exitX=0.003;exitY=0.111;exitDx=0;exitDy=0;exitPerimeter=0;entryX=-0.014;entryY=0.419;entryDx=0;entryDy=0;entryPerimeter=0;" parent="1" source="47" target="47" edge="1">
                    <mxGeometry relative="1" as="geometry">
                        <mxPoint x="150" y="755" as="targetPoint"/>
                        <Array as="points">
                            <mxPoint x="170" y="652"/>
                            <mxPoint x="170" y="880"/>
                        </Array>
                    </mxGeometry>
                </mxCell>
                <mxCell id="74" style="edgeStyle=orthogonalEdgeStyle;html=1;exitX=1.003;exitY=0.165;exitDx=0;exitDy=0;exitPerimeter=0;entryX=1;entryY=0.395;entryDx=0;entryDy=0;entryPerimeter=0;" parent="1" source="47" target="47" edge="1">
                    <mxGeometry relative="1" as="geometry">
                        <mxPoint x="680" y="860" as="targetPoint"/>
                        <Array as="points">
                            <mxPoint x="710" y="692"/>
                            <mxPoint x="710" y="862"/>
                        </Array>
                    </mxGeometry>
                </mxCell>
                <mxCell id="75" style="edgeStyle=orthogonalEdgeStyle;html=1;entryX=1.014;entryY=0.419;entryDx=0;entryDy=0;entryPerimeter=0;exitX=1;exitY=0.216;exitDx=0;exitDy=0;exitPerimeter=0;" parent="1" source="47" target="47" edge="1">
                    <mxGeometry relative="1" as="geometry">
                        <mxPoint x="750" y="880" as="targetPoint"/>
                        <mxPoint x="660" y="730" as="sourcePoint"/>
                        <Array as="points">
                            <mxPoint x="730" y="730"/>
                            <mxPoint x="730" y="880"/>
                        </Array>
                    </mxGeometry>
                </mxCell>
                <mxCell id="76" style="edgeStyle=orthogonalEdgeStyle;html=1;exitX=-0.003;exitY=0.281;exitDx=0;exitDy=0;exitPerimeter=0;entryX=-0.009;entryY=0.796;entryDx=0;entryDy=0;entryPerimeter=0;" edge="1" parent="1" source="47" target="47">
                    <mxGeometry relative="1" as="geometry">
                        <mxPoint x="290" y="1160" as="targetPoint"/>
                        <Array as="points">
                            <mxPoint x="240" y="778"/>
                            <mxPoint x="240" y="1160"/>
                        </Array>
                    </mxGeometry>
                </mxCell>
                <mxCell id="78" style="edgeStyle=orthogonalEdgeStyle;html=1;exitX=1;exitY=0.5;exitDx=0;exitDy=0;entryX=0.999;entryY=0.567;entryDx=0;entryDy=0;entryPerimeter=0;" edge="1" parent="1" source="47" target="47">
                    <mxGeometry relative="1" as="geometry">
                        <mxPoint x="660" y="990" as="targetPoint"/>
                        <Array as="points">
                            <mxPoint x="700" y="940"/>
                            <mxPoint x="700" y="990"/>
                        </Array>
                    </mxGeometry>
                </mxCell>
                <mxCell id="79" style="edgeStyle=orthogonalEdgeStyle;html=1;exitX=-0.009;exitY=0.531;exitDx=0;exitDy=0;exitPerimeter=0;entryX=-0.003;entryY=0.582;entryDx=0;entryDy=0;entryPerimeter=0;" edge="1" parent="1" source="47" target="47">
                    <mxGeometry relative="1" as="geometry">
                        <mxPoint x="240" y="1000" as="targetPoint"/>
                        <Array as="points">
                            <mxPoint x="190" y="963"/>
                            <mxPoint x="190" y="1001"/>
                        </Array>
                    </mxGeometry>
                </mxCell>
                <mxCell id="80" style="edgeStyle=orthogonalEdgeStyle;html=1;exitX=1.004;exitY=0.606;exitDx=0;exitDy=0;exitPerimeter=0;entryX=1;entryY=0.716;entryDx=0;entryDy=0;entryPerimeter=0;" edge="1" parent="1" source="47" target="47">
                    <mxGeometry relative="1" as="geometry">
                        <mxPoint x="690" y="1050" as="targetPoint"/>
                        <Array as="points">
                            <mxPoint x="700" y="1018"/>
                            <mxPoint x="700" y="1100"/>
                        </Array>
                    </mxGeometry>
                </mxCell>
                <mxCell id="81" style="edgeStyle=orthogonalEdgeStyle;html=1;exitX=0.001;exitY=0.662;exitDx=0;exitDy=0;exitPerimeter=0;entryX=0.003;entryY=0.716;entryDx=0;entryDy=0;entryPerimeter=0;" edge="1" parent="1" source="47" target="47">
                    <mxGeometry relative="1" as="geometry">
                        <mxPoint x="280" y="1100" as="targetPoint"/>
                    </mxGeometry>
                </mxCell>
                <mxCell id="82" style="edgeStyle=orthogonalEdgeStyle;html=1;exitX=1.003;exitY=0.456;exitDx=0;exitDy=0;exitPerimeter=0;entryX=1;entryY=0.811;entryDx=0;entryDy=0;entryPerimeter=0;" edge="1" parent="1" source="47" target="47">
                    <mxGeometry relative="1" as="geometry">
                        <mxPoint x="670" y="1170" as="targetPoint"/>
                        <Array as="points">
                            <mxPoint x="720" y="907"/>
                            <mxPoint x="720" y="1170"/>
                        </Array>
                    </mxGeometry>
                </mxCell>
                <mxCell id="47" value="&lt;p style=&quot;margin: 0px ; margin-top: 4px ; text-align: center ; text-decoration: underline&quot;&gt;&lt;b&gt;Module: train.R&lt;/b&gt;&lt;/p&gt;&lt;hr&gt;&lt;p style=&quot;margin: 0px 0px 0px 8px;&quot;&gt;function: standardiseLatestTimestamp&lt;/p&gt;&lt;p style=&quot;margin: 0px 0px 0px 8px;&quot;&gt;&lt;br&gt;&lt;/p&gt;&lt;hr&gt;&amp;nbsp; function: getForecastTimestamp&lt;br&gt;&amp;nbsp;&lt;br&gt;&lt;hr&gt;&amp;nbsp; function: getOneYearDataUptoDate&lt;br&gt;&lt;br&gt;&lt;hr&gt;&amp;nbsp; function: standardiseObservations&lt;br&gt;&lt;br&gt;&lt;hr&gt;&amp;nbsp; function: splitTrainingTestData&lt;br&gt;&lt;br&gt;&lt;hr&gt;&amp;nbsp; function: overrideTee (&lt;b&gt;NOT USED&lt;/b&gt;)&lt;br&gt;&lt;br&gt;&lt;hr&gt;&amp;nbsp; function: getCurrentData&lt;br&gt;&lt;br&gt;&lt;hr&gt;&amp;nbsp; function: setupModels&lt;br&gt;&amp;nbsp;-------------------------------------------------------------------------------------&lt;br&gt;&amp;nbsp; &amp;nbsp; &amp;nbsp; &amp;nbsp;function: trainArima&lt;br&gt;&amp;nbsp;-------------------------------------------------------------------------------------&lt;br&gt;&amp;nbsp; &amp;nbsp; &amp;nbsp; &amp;nbsp;function: forecastArima&lt;br&gt;&amp;nbsp;-------------------------------------------------------------------------------------&lt;br&gt;&amp;nbsp; &amp;nbsp; &amp;nbsp; &amp;nbsp;function: runArimaPipeline (&lt;b&gt;main function&lt;/b&gt;)&lt;br&gt;&amp;nbsp;-------------------------------------------------------------------------------------&lt;br&gt;&amp;nbsp; &amp;nbsp; &amp;nbsp; &amp;nbsp;function: trainBSTS&lt;br&gt;&amp;nbsp;-------------------------------------------------------------------------------------&lt;br&gt;&amp;nbsp; &amp;nbsp; &amp;nbsp; &amp;nbsp;function: forecastBSTS&lt;br&gt;&amp;nbsp;-------------------------------------------------------------------------------------&lt;br&gt;&amp;nbsp; &amp;nbsp; &amp;nbsp; &amp;nbsp;function: runbstsPipeline (&lt;b&gt;main function&lt;/b&gt;)&lt;br&gt;&lt;br&gt;&lt;hr&gt;&amp;nbsp; function: reportStats&lt;br&gt;&lt;br&gt;&lt;hr&gt;&amp;nbsp; function: runModelsForSensors&lt;br&gt;&lt;br&gt;&lt;hr&gt;&amp;nbsp; function: getDaysPrediction&lt;br&gt;&lt;br&gt;&lt;hr&gt;&amp;nbsp; Outputs:&lt;br&gt;&lt;ul&gt;&lt;li&gt;currentData = getCurrentData(t_ee)&lt;/li&gt;&lt;li&gt;runModelsForSensors&lt;/li&gt;&lt;/ul&gt;" style="verticalAlign=top;align=left;overflow=fill;fontSize=12;fontFamily=Helvetica;html=1;rounded=0;shadow=0;comic=0;labelBackgroundColor=none;strokeWidth=1;fillColor=#333333;" parent="1" vertex="1">
                    <mxGeometry x="305" y="570" width="350" height="740" as="geometry"/>
                </mxCell>
                <mxCell id="58" style="edgeStyle=orthogonalEdgeStyle;html=1;exitX=1.009;exitY=0.071;exitDx=0;exitDy=0;exitPerimeter=0;entryX=1.003;entryY=0.308;entryDx=0;entryDy=0;entryPerimeter=0;" parent="1" source="48" target="48" edge="1">
                    <mxGeometry relative="1" as="geometry">
                        <mxPoint x="1300" y="730" as="targetPoint"/>
                        <Array as="points">
                            <mxPoint x="1370" y="607"/>
                            <mxPoint x="1370" y="730"/>
                        </Array>
                    </mxGeometry>
                </mxCell>
                <mxCell id="59" style="edgeStyle=orthogonalEdgeStyle;html=1;exitX=1.006;exitY=0.071;exitDx=0;exitDy=0;exitPerimeter=0;entryX=1;entryY=0.404;entryDx=0;entryDy=0;entryPerimeter=0;" parent="1" source="48" target="48" edge="1">
                    <mxGeometry relative="1" as="geometry">
                        <mxPoint x="1270" y="700" as="targetPoint"/>
                        <Array as="points">
                            <mxPoint x="1370" y="607"/>
                            <mxPoint x="1370" y="780"/>
                        </Array>
                    </mxGeometry>
                </mxCell>
                <mxCell id="60" style="edgeStyle=orthogonalEdgeStyle;html=1;exitX=1.003;exitY=0.146;exitDx=0;exitDy=0;exitPerimeter=0;entryX=1.011;entryY=0.348;entryDx=0;entryDy=0;entryPerimeter=0;" parent="1" source="48" target="48" edge="1">
                    <mxGeometry relative="1" as="geometry">
                        <mxPoint x="1290" y="750" as="targetPoint"/>
                        <Array as="points">
                            <mxPoint x="1320" y="646"/>
                            <mxPoint x="1320" y="750"/>
                        </Array>
                    </mxGeometry>
                </mxCell>
                <mxCell id="61" style="edgeStyle=orthogonalEdgeStyle;html=1;exitX=1;exitY=0.146;exitDx=0;exitDy=0;exitPerimeter=0;entryX=1.009;entryY=0.444;entryDx=0;entryDy=0;entryPerimeter=0;" parent="1" source="48" target="48" edge="1">
                    <mxGeometry relative="1" as="geometry">
                        <mxPoint x="1280" y="800" as="targetPoint"/>
                        <Array as="points">
                            <mxPoint x="1320" y="646"/>
                            <mxPoint x="1320" y="801"/>
                        </Array>
                    </mxGeometry>
                </mxCell>
                <mxCell id="62" style="edgeStyle=orthogonalEdgeStyle;html=1;exitX=-0.003;exitY=0.319;exitDx=0;exitDy=0;exitPerimeter=0;entryX=-0.011;entryY=0.481;entryDx=0;entryDy=0;entryPerimeter=0;" parent="1" source="48" target="48" edge="1">
                    <mxGeometry relative="1" as="geometry">
                        <mxPoint x="780" y="820" as="targetPoint"/>
                        <Array as="points">
                            <mxPoint x="840" y="736"/>
                            <mxPoint x="840" y="820"/>
                        </Array>
                    </mxGeometry>
                </mxCell>
                <mxCell id="63" style="edgeStyle=orthogonalEdgeStyle;html=1;exitX=0;exitY=0.402;exitDx=0;exitDy=0;exitPerimeter=0;entryX=-0.011;entryY=0.656;entryDx=0;entryDy=0;entryPerimeter=0;" parent="1" source="48" target="48" edge="1">
                    <mxGeometry relative="1" as="geometry">
                        <mxPoint x="890" y="910" as="targetPoint"/>
                        <Array as="points">
                            <mxPoint x="810" y="779"/>
                            <mxPoint x="810" y="910"/>
                            <mxPoint x="890" y="910"/>
                            <mxPoint x="890" y="911"/>
                        </Array>
                    </mxGeometry>
                </mxCell>
                <mxCell id="64" style="edgeStyle=orthogonalEdgeStyle;html=1;exitX=-0.006;exitY=0.402;exitDx=0;exitDy=0;exitPerimeter=0;entryX=-0.006;entryY=0.729;entryDx=0;entryDy=0;entryPerimeter=0;" parent="1" source="48" target="48" edge="1">
                    <mxGeometry relative="1" as="geometry">
                        <mxPoint x="880" y="950" as="targetPoint"/>
                        <Array as="points">
                            <mxPoint x="810" y="779"/>
                            <mxPoint x="810" y="950"/>
                            <mxPoint x="820" y="950"/>
                        </Array>
                    </mxGeometry>
                </mxCell>
                <mxCell id="65" style="edgeStyle=orthogonalEdgeStyle;html=1;exitX=-0.006;exitY=0.4;exitDx=0;exitDy=0;exitPerimeter=0;entryX=-0.011;entryY=0.808;entryDx=0;entryDy=0;entryPerimeter=0;" parent="1" source="48" target="48" edge="1">
                    <mxGeometry relative="1" as="geometry">
                        <mxPoint x="800" y="1010" as="targetPoint"/>
                        <Array as="points">
                            <mxPoint x="810" y="778"/>
                            <mxPoint x="810" y="990"/>
                        </Array>
                    </mxGeometry>
                </mxCell>
                <mxCell id="66" style="edgeStyle=orthogonalEdgeStyle;html=1;exitX=0;exitY=0.567;exitDx=0;exitDy=0;exitPerimeter=0;entryX=1.009;entryY=0.585;entryDx=0;entryDy=0;entryPerimeter=0;" parent="1" source="48" target="47" edge="1">
                    <mxGeometry relative="1" as="geometry">
                        <mxPoint x="680" y="1000" as="targetPoint"/>
                        <Array as="points">
                            <mxPoint x="750" y="865"/>
                            <mxPoint x="750" y="1003"/>
                        </Array>
                    </mxGeometry>
                </mxCell>
                <mxCell id="67" style="edgeStyle=orthogonalEdgeStyle;html=1;exitX=0;exitY=0.569;exitDx=0;exitDy=0;exitPerimeter=0;entryX=1;entryY=0.692;entryDx=0;entryDy=0;entryPerimeter=0;" parent="1" source="48" target="47" edge="1">
                    <mxGeometry relative="1" as="geometry">
                        <mxPoint x="720" y="830" as="targetPoint"/>
                        <Array as="points">
                            <mxPoint x="750" y="866"/>
                            <mxPoint x="750" y="1082"/>
                        </Array>
                    </mxGeometry>
                </mxCell>
                <mxCell id="68" style="edgeStyle=orthogonalEdgeStyle;html=1;exitX=1.003;exitY=0.644;exitDx=0;exitDy=0;exitPerimeter=0;entryX=1.006;entryY=0.579;entryDx=0;entryDy=0;entryPerimeter=0;" parent="1" source="48" target="48" edge="1">
                    <mxGeometry relative="1" as="geometry">
                        <mxPoint x="1260" y="870" as="targetPoint"/>
                        <Array as="points">
                            <mxPoint x="1310" y="905"/>
                            <mxPoint x="1310" y="871"/>
                        </Array>
                    </mxGeometry>
                </mxCell>
                <mxCell id="69" style="edgeStyle=orthogonalEdgeStyle;html=1;exitX=1;exitY=0.75;exitDx=0;exitDy=0;entryX=1;entryY=0.558;entryDx=0;entryDy=0;entryPerimeter=0;" parent="1" source="48" target="48" edge="1">
                    <mxGeometry relative="1" as="geometry">
                        <mxPoint x="1260" y="860" as="targetPoint"/>
                        <Array as="points">
                            <mxPoint x="1330" y="960"/>
                            <mxPoint x="1330" y="860"/>
                        </Array>
                    </mxGeometry>
                </mxCell>
                <mxCell id="71" style="edgeStyle=orthogonalEdgeStyle;html=1;exitX=1.011;exitY=0.819;exitDx=0;exitDy=0;exitPerimeter=0;entryX=1;entryY=0.615;entryDx=0;entryDy=0;entryPerimeter=0;" parent="1" source="48" target="48" edge="1">
                    <mxGeometry relative="1" as="geometry">
                        <mxPoint x="1254" y="890" as="targetPoint"/>
                        <Array as="points">
                            <mxPoint x="1300" y="996"/>
                            <mxPoint x="1300" y="890"/>
                        </Array>
                    </mxGeometry>
                </mxCell>
                <mxCell id="48" value="&lt;p style=&quot;margin: 0px ; margin-top: 4px ; text-align: center ; text-decoration: underline&quot;&gt;&lt;b&gt;Module: pushData.R&lt;/b&gt;&lt;/p&gt;&lt;hr&gt;&lt;p style=&quot;margin: 0px 0px 0px 8px;&quot;&gt;function: connectToDatabase&lt;/p&gt;&lt;p style=&quot;margin: 0px 0px 0px 8px;&quot;&gt;&lt;br&gt;&lt;/p&gt;&lt;hr&gt;&amp;nbsp; function: disconnectFromDatabase&lt;br&gt;&amp;nbsp;&lt;br&gt;&lt;hr&gt;&amp;nbsp; function: printTables (&lt;b&gt;NOT USED&lt;/b&gt;)&lt;br&gt;&lt;br&gt;&lt;hr&gt;&amp;nbsp; function: getData&lt;br&gt;&lt;br&gt;&lt;hr&gt;&amp;nbsp; function: writeData&lt;br&gt;&lt;br&gt;&lt;hr&gt;&amp;nbsp; function: getPredictions (&lt;b&gt;NOT USED&lt;/b&gt;)&lt;br&gt;&lt;br&gt;&lt;hr&gt;&amp;nbsp; function: writeRun&lt;br&gt;&lt;br&gt;&lt;hr&gt;&amp;nbsp; function: writeRunTable&lt;br&gt;&lt;br&gt;&lt;hr&gt;&amp;nbsp; function: writeProductTable&lt;br&gt;&lt;br&gt;&lt;hr&gt;&amp;nbsp; function: writePredictionTable&lt;br&gt;&lt;br&gt;&lt;hr&gt;&amp;nbsp;" style="verticalAlign=top;align=left;overflow=fill;fontSize=12;fontFamily=Helvetica;html=1;rounded=0;shadow=0;comic=0;labelBackgroundColor=none;strokeWidth=1;fillColor=#333333;" parent="1" vertex="1">
                    <mxGeometry x="900" y="570" width="350" height="520" as="geometry"/>
                </mxCell>
            </root>
        </mxGraphModel>
    </diagram>
</mxfile>